:FULLY-SPECIFIED
:FORCE-ALL-JOINTS-BE-3DOF
:DEGREES
453
root 10.8002 17.4213 27.6661 5.53143 0.976205 2.83482
lfemur -20.1981 3.8708 -29.1953
ltibia 28.6847 0 0
lfoot -13.8222 4.3018 0
ltoes 1.46595 0 0
rfemur -20.7795 -2.95786 15.9611
rtibia 65.0006 0 0
rfoot -6.3204 -8.44706 0
rtoes -12.2536 0 0
lowerback -5.08088 -1.24782 -3.46056
upperback -2.39639 -1.51277 1.11154
thorax 0.502527 -0.732432 2.99034
lowerneck -19.0104 -3.57981 -12.01
upperneck 24.0483 -4.36628 10.9929
head 11.5075 -1.74303 5.46899
lclavicle 1.30989e-14 9.15318e-15 0
lhumerus -26.9661 -11.5844 88.3685
lradius 21.6101 0 0
lwrist -2.89529 0 0
lhand -12.418 -23.6174 0
lfingers 7.12502 0 0
lthumb 13.6544 5.91945 0
rclavicle 1.30989e-14 9.15318e-15 0
rhumerus -47.3118 11.2819 -89.1902
rradius 34.6315 0 0
rwrist -15.6337 0 0
rhand -33.9635 -24.319 0
rfingers 7.12502 0 0
rthumb -7.14425 -54.1767 0
454
root 10.8083 17.4189 27.7753 5.39872 1.22879 2.80369
lfemur -19.6375 3.76795 -29.1286
ltibia 28.7382 0 0
lfoot -14.2853 4.22905 0
ltoes 1.89528 0 0
rfemur -21.7236 -2.81507 16.1197
rtibia 64.4514 0 0
rfoot -7.6944 -8.48532 0
rtoes -12.9768 0 0
lowerback -5.00368 -1.45426 -3.44788
upperback -2.23566 -1.7923 1.18844
thorax 0.648697 -0.876586 3.04719
lowerneck -19.2879 -3.50533 -11.862
upperneck 24.1486 -4.25003 10.8826
head 11.5779 -1.6836 5.42397
lclavicle 1.39899e-14 9.61587e-15 0
lhumerus -25.8581 -12.3853 88.2848
lradius 21.9018 0 0
lwrist -2.48805 0 0
lhand -12.4929 -23.6443 0
lfingers 7.12502 0 0
lthumb 13.5822 5.89718 0
rclavicle 1.39899e-14 9.61587e-15 0
rhumerus -47.1843 11.2263 -88.9431
rradius 35.0559 0 0
rwrist -15.9405 0 0
rhand -34.117 -24.1499 0
rfingers 7.12502 0 0
rthumb -7.29249 -54.0026 0
455
root 10.8158 17.4158 27.8846 5.26894 1.48006 2.77098
lfemur -19.0615 3.66441 -29.0573
ltibia 28.7548 0 0
lfoot -14.728 4.16043 0
ltoes 2.316 0 0
rfemur -22.6427 -2.65607 16.2753
rtibia 63.8222 0 0
rfoot -9.04983 -8.51149 0
rtoes -13.6914 0 0
lowerback -4.93352 -1.65851 -3.43537
upperback -2.07248 -2.06868 1.26494
thorax 0.801598 -1.01939 3.10344
lowerneck -19.5655 -3.43296 -11.7159
upperneck 24.2454 -4.13696 10.7756
head 11.6476 -1.62534 5.37991
lclavicle 1.48114e-14 1.00744e-14 0
lhumerus -24.7628 -13.1794 88.1986
lradius 22.2031 0 0
lwrist -2.07174 0 0
lhand -12.5691 -23.6728 0
lfingers 7.12502 0 0
lthumb 13.5088 5.87333 0
rclavicle 1.48114e-14 1.00744e-14 0
rhumerus -47.0515 11.168 -88.696
rradius 35.4753 0 0
rwrist -16.2458 0 0
rhand -34.2622 -23.9826 0
rfingers 7.12502 0 0
rthumb -7.43261 -53.8305 0
456
root 10.8229 17.4124 27.9942 5.14319 1.72722 2.73934
lfemur -18.4652 3.56168 -28.9848
ltibia 28.725 0 0
lfoot -15.1466 4.09629 0
ltoes 2.72163 0 0
rfemur -23.5379 -2.48156 16.4214
rtibia 63.1272 0 0
rfoot -10.3735 -8.52722 0
rtoes -14.3845 0 0
lowerback -4.87125 -1.85929 -3.42479
upperback -1.9084 -2.33998 1.33975
thorax 0.959985 -1.15987 3.15872
lowerneck -19.8403 -3.36274 -11.5726
upperneck 24.3376 -4.02731 10.6726
head 11.7158 -1.56845 5.33721
lclavicle 1.55476e-14 1.05283e-14 0
lhumerus -23.6862 -13.9581 88.109
lradius 22.5123 0 0
lwrist -1.6505 0 0
lhand -12.6477 -23.7031 0
lfingers 7.12502 0 0
lthumb 13.433 5.84762 0
rclavicle 1.55476e-14 1.05283e-14 0
rhumerus -46.9177 11.1077 -88.4519
rradius 35.8846 0 0
rwrist -16.5465 0 0
rhand -34.3974 -23.8192 0
rfingers 7.12502 0 0
rthumb -7.56314 -53.6626 0
457
root 10.8295 17.4087 28.1044 5.02256 1.96746 2.71145
lfemur -17.8438 3.46125 -28.9147
ltibia 28.6395 0 0
lfoot -15.5372 4.03699 0
ltoes 3.1057 0 0
rfemur -24.4098 -2.2922 16.5514
rtibia 62.3802 0 0
rfoot -11.6524 -8.53414 0
rtoes -15.0431 0 0
lowerback -4.81775 -2.05531 -3.41795
upperback -1.74493 -2.60426 1.41159
thorax 1.12262 -1.29704 3.21265
lowerneck -20.109 -3.2947 -11.4332
upperneck 24.4243 -3.92136 10.5744
head 11.7815 -1.51316 5.29621
lclavicle 1.61827e-14 1.09767e-14 0
lhumerus -22.6347 -14.7127 88.015
lradius 22.8276 0 0
lwrist -1.22848 0 0
lhand -12.7299 -23.7357 0
lfingers 7.12502 0 0
lthumb 13.3538 5.81979 0
rclavicle 1.61827e-14 1.09767e-14 0
rhumerus -46.7873 11.0457 -88.2138
rradius 36.2788 0 0
rwrist -16.8393 0 0
rhand -34.5212 -23.6619 0
rfingers 7.12502 0 0
rthumb -7.68261 -53.5011 0
458
root 10.8359 17.4049 28.2155 4.90815 2.19796 2.68997
lfemur -17.1923 3.36462 -28.8504
ltibia 28.4891 0 0
lfoot -15.8963 3.98288 0
ltoes 3.46175 0 0
rfemur -25.2594 -2.08871 16.6588
rtibia 61.5953 0 0
rfoot -12.8733 -8.53389 0
rtoes -15.6541 0 0
lowerback -4.77386 -2.24526 -3.41662
upperback -1.58361 -2.85958 1.47917
thorax 1.28825 -1.42991 3.26485
lowerneck -20.3685 -3.22888 -11.2988
upperneck 24.5044 -3.81937 10.4817
head 11.8436 -1.45967 5.25731
lclavicle 1.67007e-14 1.1419e-14 0
lhumerus -21.6146 -15.4348 87.9156
lradius 23.1473 0 0
lwrist -0.809825 0 0
lhand -12.8169 -23.7709 0
lfingers 7.12502 0 0
lthumb 13.2698 5.78956 0
rclavicle 1.67007e-14 1.1419e-14 0
rhumerus -46.6644 10.9828 -87.9845
rradius 36.6528 0 0
rwrist -17.1211 0 0
rhand -34.6319 -23.5126 0
rfingers 7.12502 0 0
rthumb -7.78952 -53.3482 0
459
root 10.8419 17.4011 28.3278 4.80103 2.41593 2.67757
lfemur -16.5059 3.27328 -28.7955
ltibia 28.2643 0 0
lfoot -16.2202 3.93432 0
ltoes 3.7833 0 0
rfemur -26.0873 -1.87176 16.737
rtibia 60.7862 0 0
rfoot -14.023 -8.52812 0
rtoes -16.2046 0 0
lowerback -4.74046 -2.42786 -3.4226
upperback -1.42599 -3.10401 1.54119
thorax 1.45564 -1.55751 3.31493
lowerneck -20.6154 -3.16532 -11.1704
upperneck 24.5768 -3.72159 10.3951
head 11.9013 -1.40819 5.22087
lclavicle 1.70861e-14 1.18547e-14 0
lhumerus -20.632 -16.1158 87.8099
lradius 23.4696 0 0
lwrist -0.398692 0 0
lhand -12.91 -23.8091 0
lfingers 7.12502 0 0
lthumb 13.18 5.75666 0
rclavicle 1.70861e-14 1.18547e-14 0
rhumerus -46.5534 10.9194 -87.7669
rradius 37.0016 0 0
rwrist -17.3889 0 0
rhand -34.7282 -23.3736 0
rfingers 7.12502 0 0
rthumb -7.88242 -53.2059 0
460
root 10.8477 17.3976 28.4415 4.70231 2.61854 2.67692
lfemur -15.7798 3.18872 -28.7536
ltibia 27.9558 0 0
lfoot -16.5051 3.89166 0
ltoes 4.06389 0 0
rfemur -26.8943 -1.64205 16.7795
rtibia 59.9671 0 0
rfoot -15.0885 -8.51846 0
rtoes -16.6815 0 0
lowerback -4.71839 -2.60181 -3.43766
upperback -1.2736 -3.33562 1.59638
thorax 1.62353 -1.67884 3.36254
lowerneck -20.8468 -3.10407 -11.0492
upperneck 24.6406 -3.62828 10.3153
head 11.9536 -1.35893 5.18726
lclavicle 1.73229e-14 1.2283e-14 0
lhumerus -19.6931 -16.7471 87.6968
lradius 23.7927 0 0
lwrist 0.000773924 0 0
lhand -13.0104 -23.8506 0
lfingers 7.12502 0 0
lthumb 13.0833 5.72083 0
rclavicle 1.73229e-14 1.2283e-14 0
rhumerus -46.4587 10.8561 -87.564
rradius 37.3201 0 0
rwrist -17.6394 0 0
rhand -34.8084 -23.2469 0
rfingers 7.12502 0 0
rthumb -7.95982 -53.0765 0
461
root 10.8533 17.3944 28.557 4.61308 2.803 2.69067
lfemur -15.0089 3.11245 -28.728
ltibia 27.5544 0 0
lfoot -16.7474 3.85526 0
ltoes 4.29704 0 0
rfemur -27.6814 -1.40025 16.7796
rtibia 59.1519 0 0
rfoot -16.0567 -8.50655 0
rtoes -17.0719 0 0
lowerback -4.70852 -2.76583 -3.4636
upperback -1.12797 -3.55247 1.64344
thorax 1.7907 -1.79292 3.40728
lowerneck -21.0593 -3.04517 -10.936
upperneck 24.6947 -3.53972 10.2431
head 11.9994 -1.3121 5.15686
lclavicle 1.73953e-14 1.27033e-14 0
lhumerus -18.8042 -17.3202 87.5755
lradius 24.115 0 0
lwrist 0.384424 0 0
lhand -13.1192 -23.8957 0
lfingers 7.12502 0 0
lthumb 12.9784 5.68178 0
rclavicle 1.73953e-14 1.27033e-14 0
rhumerus -46.3843 10.7934 -87.3788
rradius 37.6032 0 0
rwrist -17.8695 0 0
rhand -34.871 -23.1346 0
rfingers 7.12502 0 0
rthumb -8.02025 -52.9621 0
462
root 10.8588 17.3916 28.6746 4.53443 2.96649 2.72149
lfemur -14.1886 3.04595 -28.7224
ltibia 27.0507 0 0
lfoot -16.9433 3.82547 0
ltoes 4.47629 0 0
rfemur -28.4493 -1.14708 16.7309
rtibia 58.3544 0 0
rfoot -16.9143 -8.49404 0
rtoes -17.3626 0 0
lowerback -4.71172 -2.91861 -3.5022
upperback -0.990632 -3.75263 1.68108
thorax 1.9559 -1.89878 3.44878
lowerneck -21.2499 -2.98865 -10.832
upperneck 24.7381 -3.45615 10.1791
head 12.0378 -1.26792 5.13004
lclavicle 1.72875e-14 1.3115e-14 0
lhumerus -17.9716 -17.8264 87.4448
lradius 24.4346 0 0
lwrist 0.748109 0 0
lhand -13.2376 -23.9449 0
lfingers 7.12502 0 0
lthumb 12.8642 5.63926 0
rclavicle 1.72875e-14 1.3115e-14 0
rhumerus -46.3348 10.7318 -87.214
rradius 37.8459 0 0
rwrist -18.0761 0 0
rhand -34.9144 -23.0388 0
rfingers 7.12502 0 0
rthumb -8.06224 -52.8649 0
